<svg width="96" height="112" viewBox="0 0 96 112" fill="none" xmlns="http://www.w3.org/2000/svg">
<path d="M29.9819 13.1433C30.0795 13.1396 30.1772 13.1505 30.2717 13.1755C30.8998 13.5527 41.1962 32.0115 45.5911 42.3085H46.3454C51.7456 32.2625 62.042 13.301 62.9211 13.1755C62.9406 13.1745 62.9601 13.1745 62.9796 13.1755C64.7536 13.1755 82.8878 18.0934 83.012 19.5816C83.1381 21.2144 63.4231 55.9979 62.544 57.2535C67.316 65.1642 84.7702 96.0554 84.6454 96.9346C84.2879 97.8886 68.4126 103.26 63.2674 103.26C63.0256 103.263 62.7841 103.247 62.5447 103.213C61.7917 102.962 51.4946 84.1256 46.2206 73.8292H45.467C40.3184 84.1256 30.1468 102.962 29.5193 102.962C29.1587 103.019 28.7938 103.045 28.4287 103.04C22.9135 103.04 8.15451 98.7466 7.92126 97.8136C7.67027 96.9345 24.748 65.6668 29.8965 57.2535C29.1422 56.1234 9.80497 21.3399 9.93047 19.7072C9.93047 18.2663 27.1737 13.1453 29.9832 13.1453L29.9819 13.1433ZM29.9832 5.26089C26.9057 5.26089 20.244 7.20373 16.5462 8.36209C14.6493 8.95342 11.9154 9.85815 9.66962 10.7819C7.4357 11.7018 2.25694 13.8293 2.05261 19.3655C1.92908 21.7643 2.73133 23.5975 5.88182 29.7138C7.54215 32.9372 9.82403 37.2165 12.6559 42.4327C15.0646 46.8657 18.4529 53.0228 20.7821 57.1799C17.6993 62.5084 13.4364 70.1932 9.95741 76.5927C7.35621 81.3766 5.13016 85.552 3.51845 88.6697C0.458627 94.5915 -0.590659 96.6198 0.312766 99.8886C1.48098 104.206 5.43305 105.61 7.80693 106.454C9.51982 107.062 11.7682 107.749 14.1375 108.389C17.6461 109.336 24.1678 110.925 28.4267 110.925C29.1101 110.929 29.7929 110.885 30.4701 110.793C34.2244 110.36 36.1206 107.443 36.7776 106.435C37.1922 105.797 37.71 104.944 38.3604 103.828C39.4734 101.918 40.98 99.221 42.7179 96.0285C43.7567 94.1231 44.8335 92.1185 45.9012 90.1119C47.0037 92.1487 48.1108 94.1796 49.1706 96.1001C50.9446 99.3156 52.4828 102.033 53.6168 103.962C55.7095 107.52 56.9716 109.668 60.0426 110.693L60.6878 110.908L61.3593 111.01C61.9902 111.103 62.6271 111.149 63.2647 111.146C67.1984 111.146 73.5093 109.423 78.1105 107.979C80.5704 107.206 82.9331 106.384 84.7649 105.663C87.3931 104.627 90.6632 103.339 92.0259 99.7033L92.3268 98.8991L92.4483 98.0495C92.859 95.1704 92.0107 93.5962 88.855 87.738C87.2433 84.7472 84.9785 80.646 82.3063 75.8772C78.4824 69.0552 74.4758 62.0281 71.686 57.2384C74.3286 52.6292 78.1578 45.7921 80.0481 42.3841C82.9351 37.1777 85.263 32.8932 86.9687 29.6488C90.3077 23.2919 91.0686 21.5449 90.8708 18.9772V18.9535V18.9292C90.4174 13.4758 85.3458 11.5303 82.9082 10.5934C80.6434 9.72346 77.8253 8.84567 75.8595 8.26287C72.1203 7.15314 65.4783 5.29242 62.9816 5.29242C62.722 5.29242 62.4612 5.30423 62.2076 5.32722L62.0065 5.34499L61.8094 5.3739C57.789 5.94881 56.0176 8.89626 53.9664 12.3096C52.8435 14.1782 51.3238 16.8254 49.4506 20.1796C48.4552 21.9608 47.4091 23.8524 46.3625 25.7644C45.2659 23.6494 44.2554 21.7512 43.4715 20.2899C41.9163 17.399 40.3834 14.6348 39.1508 12.5021C37.2146 9.14726 36.3308 7.61571 34.3413 6.42122L33.5963 5.97375L32.7723 5.69913C31.8754 5.4035 30.9361 5.25634 29.9918 5.2635L29.9832 5.26089Z" fill="black"/>
<path d="M33.2705 7.88253C33.3679 7.87874 33.4654 7.8896 33.5596 7.91473C34.1884 8.29187 44.4848 26.7506 48.8797 37.0477H49.6307C55.0296 27.0016 65.3267 8.04089 66.2058 7.91473C66.2255 7.91366 66.2452 7.91366 66.2649 7.91473C68.0389 7.91473 86.1731 12.8327 86.298 14.3208C86.4241 15.9542 66.7084 50.7371 65.8293 51.9927C70.6013 59.9034 88.0562 90.7946 87.9307 91.6737C87.5726 92.6277 71.6973 97.9997 66.5527 97.9997C66.3109 98.0017 66.0694 97.9859 65.83 97.9523C65.077 97.7013 54.7799 78.8654 49.5059 68.5684H48.7523C43.6037 78.8654 33.4322 97.7014 32.804 97.7014C32.4433 97.7583 32.0784 97.7844 31.7133 97.7795C26.1988 97.7795 11.4398 93.4865 11.2066 92.5528C10.9549 91.6737 28.0333 60.406 33.1818 51.9927C32.4276 50.8632 13.089 16.0791 13.2151 14.4463C13.2151 13.0054 30.4584 7.8845 33.2685 7.8845L33.2705 7.88253ZM33.2685 6.10352e-05C30.191 6.10352e-05 23.5286 1.9429 19.8315 3.10125C17.934 3.69259 15.2007 4.59735 12.9549 5.52115C10.721 6.441 5.54226 8.56846 5.33727 14.1046C5.21375 16.5041 6.01599 18.3373 9.16648 24.453C10.8268 27.6764 13.1087 31.9557 15.9405 37.1725C18.3492 41.6049 21.7382 47.762 24.0668 51.9191C20.9839 57.2477 16.7211 64.933 13.2421 71.3319C10.6409 76.1157 8.41548 80.2919 6.80311 83.4089C3.74395 89.3307 2.694 91.359 3.59743 94.6277C4.76498 98.9451 8.71838 100.349 11.0916 101.193C12.8051 101.801 15.0535 102.489 17.4221 103.128C20.9307 104.075 27.4524 105.664 31.7114 105.664C32.3949 105.668 33.0779 105.624 33.7554 105.533C37.5091 105.099 39.4059 102.182 40.0629 101.173C40.4775 100.536 40.9946 99.683 41.6451 98.566C42.7581 96.6567 44.2647 93.9595 46.0032 90.767C47.0413 88.8616 48.1189 86.857 49.1865 84.8504C50.2884 86.8872 51.3955 88.9181 52.456 90.8386C54.23 94.0542 55.7681 96.7723 56.9022 98.7C58.9942 102.259 60.253 104.406 63.3279 105.431L63.9732 105.647L64.644 105.749C65.2748 105.842 65.9118 105.887 66.5494 105.885C70.4824 105.885 76.7932 104.163 81.3951 102.717C83.8538 101.945 86.2178 101.123 88.0489 100.401C90.6771 99.3657 93.9472 98.0779 95.3099 94.4418L95.6114 93.6376L95.7323 92.788C96.143 89.9089 95.2948 88.3347 92.139 82.4765C90.5286 79.4857 88.2625 75.3845 85.5903 70.6157C81.7677 63.7937 77.7598 56.7667 74.9713 51.9769C77.6132 47.3678 81.4431 40.5307 83.3321 37.1226C86.2191 31.9169 88.5483 27.6317 90.2526 24.3879C93.593 18.0304 94.3539 16.284 94.1548 13.7157V13.692V13.6677C93.7021 8.21433 88.6304 6.26882 86.1935 5.33255C83.9274 4.46197 81.1093 3.58485 79.1448 3.0014C75.4049 1.89166 68.7597 0.0309398 66.2669 0.0309398C66.0041 0.0309398 65.7459 0.0427524 65.4929 0.0657486L65.2918 0.083514L65.0947 0.112428C61.0743 0.687335 59.3036 3.63544 57.2517 7.04808C56.1295 8.91669 54.6097 11.5639 52.7352 14.9187C51.7411 16.6993 50.6984 18.5909 49.6472 20.5035C48.5512 18.3879 47.5407 16.4897 46.7562 15.0291C45.201 12.1382 43.6681 9.37335 42.4355 7.24061C40.4992 3.88973 39.6149 2.35423 37.626 1.15974L36.8809 0.712278L36.057 0.438299C35.1601 0.142205 34.2209 -0.00516686 33.2764 0.00202605L33.2685 6.10352e-05Z" fill="black"/>
<path d="M46.7732 68.5657C41.6246 78.8628 31.4537 97.6987 30.8263 97.6987C26.5555 98.4517 9.47847 93.5548 9.22748 92.5502C8.9765 91.671 26.0536 60.4033 31.2021 51.99C30.4485 50.8605 11.1112 16.0764 11.236 14.4436C11.236 12.9377 30.072 7.41335 31.5792 7.91401C32.2067 8.29115 42.5038 26.75 46.8993 37.047H47.6523C53.0525 27.0009 63.3482 8.04016 64.2274 7.91401C65.6071 7.78918 84.1934 12.8109 84.3195 14.3182C84.445 15.9515 64.73 50.7344 63.8509 51.99C68.6223 59.9007 86.0771 90.7919 85.9516 91.671C85.5758 92.6756 67.9948 98.5778 63.8509 97.9497C63.0979 97.6987 52.8008 78.8628 47.5268 68.5657H46.7732Z" fill="#FCD015"/>
<path d="M64.1776 97.9496C63.4246 97.6987 53.1275 78.8627 47.8568 68.5657H47.0999C41.9513 78.8627 31.7804 97.6987 31.1529 97.6987C27.3533 98.3688 13.407 94.5633 10.2086 93.01V90.9141C13.3512 84.278 26.8855 59.603 31.4611 52.101H64.2472C69.1132 60.1865 86.4058 90.7958 86.2816 91.6703C85.9241 92.6244 70.0528 97.995 64.9042 97.9956C64.6612 97.9984 64.4183 97.983 64.1776 97.9496Z" fill="#FBB500"/>
<path d="M66.496 99.9622C66.1718 99.9639 65.8478 99.942 65.5268 99.8965L65.1983 99.817C64.3054 99.5187 63.9355 99.3951 57.6306 87.9752C54.7968 82.8431 51.6259 76.9331 49.1371 72.1564C46.733 76.8673 43.6265 82.7544 40.8071 87.9332C34.6639 99.2158 34.2283 99.6494 32.9549 99.6659C29.947 100.089 23.5744 98.6185 19.9962 97.6888C9.79044 95.0377 9.52302 93.9694 9.28649 93.0239C9.02367 92.1178 8.90082 91.6756 18.4298 74.1492C23.3175 65.159 28.2656 56.3487 30.8813 51.9683C29.263 49.1365 25.0383 41.5359 21.1296 34.342C11.2977 16.2485 11.182 15.1243 11.2392 14.3313C11.2724 13.9344 11.3983 13.5508 11.6066 13.2113C11.815 12.8718 12.1001 12.5859 12.4389 12.3766C14.8792 10.617 31.5929 5.1801 34.1737 6.0395L34.38 6.10519L34.5666 6.21755C34.9917 6.47314 35.6343 6.85947 41.5312 17.8188C43.1114 20.7538 46.6863 27.499 49.3769 33.3361C63.9815 6.232 64.6037 6.14332 65.9178 5.95541L66.019 5.94357C68.0728 5.76158 84.8312 10.3851 87.3306 12.4837C87.5885 12.6843 87.8031 12.9352 87.9612 13.2211C88.1193 13.5071 88.2177 13.8222 88.2504 14.1473C88.3161 14.9693 88.3819 15.8063 78.1531 34.2441C74.115 41.526 69.7989 49.1306 68.1182 51.9874C70.7135 56.3593 75.7897 65.2286 80.4245 73.4961C90.0514 90.673 89.9942 91.0705 89.87 91.943L89.8398 92.1546L89.7649 92.3517C89.4797 93.1139 89.0895 94.1573 78.8581 97.2973C75.4842 98.3446 69.699 99.9622 66.496 99.9622ZM47.528 66.5946H50.7048L51.254 67.6669C56.49 77.8884 64.7233 92.8701 66.8127 96.0331C70.5959 95.9346 81.5835 92.4759 85.4114 90.8425C82.3174 84.7255 68.9244 60.9474 64.1359 53.0071L63.4736 51.9092L64.2095 50.8579C65.3192 49.1969 81.0684 21.3419 83.9403 15.0402C80.6433 13.5481 70.3192 10.621 67.0117 9.99684C65.4664 12.2899 60.7305 20.5495 51.3618 37.9787L50.8033 39.0168H47.57L47.0589 37.8197C43.0746 28.4838 34.7401 13.4298 32.5567 9.91864C29.3083 10.4134 18.7997 13.5396 15.5336 15.1217C18.2833 21.2854 33.8176 49.3323 34.8216 50.9065L35.4845 51.9447L34.8564 53.0176C30.1914 60.6458 16.6565 85.4095 13.6742 91.6579C17.4364 93.1034 28.0541 95.8708 31.7959 95.8124C33.8577 92.673 42.1672 77.3142 46.9833 67.6827L47.528 66.5946Z" fill="#FCD015"/>
<path d="M3.19341 15.5081L6.56204 10.1171L9.407 15.1342C9.407 15.1342 7.6928 18.926 7.53643 19.0298C7.38005 19.1336 3.19341 15.5081 3.19341 15.5081Z" fill="black"/>
<path d="M94.859 95.4431L91.0115 101.6L86.0659 98.0002L91.039 91.5817L94.859 95.4431Z" fill="black"/>
</svg>
